<svg width="32" height="32" viewBox="0 0 32 32" fill="none" xmlns="http://www.w3.org/2000/svg">
  <rect width="32" height="32" rx="6" fill="#2563EB"/>
  <path d="M11.5 8C10.1 8 8.8 8.5 7.8 9.5L4.6 12.7C3.6 13.7 3.1 15 3.1 16.4C3.1 19.3 5.4 21.6 8.3 21.6C9.7 21.6 11 21 12 20.1L14.2 17.9L20.8 11.4C21.3 10.9 21.9 10.7 22.6 10.7C23.7 10.7 24.6 11.4 24.9 12.4L27 10.3C26 8.9 24.4 8 22.6 8C21.2 8 19.9 8.5 18.9 9.5L10.1 18.3C9.6 18.8 9 19.1 8.3 19.1C7.3 19.1 6.5 18.3 6.5 17.3C6.5 16.6 6.8 16 7.3 15.5L10.5 12.3C11 11.8 11.6 11.6 12.3 11.6C13.4 11.6 14.3 12.3 14.7 13.3L16.7 11.3C15.8 9.9 14.1 9 12.3 9C11.5 9 11.5 8 11.5 8Z" fill="white"/>
</svg>
